# Blender v2.78 (sub 0) OBJ File: 'hammeringman.blend'
# www.blender.org
mtllib hammeringman_arm.mtl
o BezierCurve.002_Mesh.001
v -11.447307 194.161697 -148.841400
v -11.447339 156.212357 -32.960407
v -11.447348 140.958191 1.025914
v -11.447363 148.744720 30.893087
v -11.447363 138.911926 41.134483
v -11.447371 143.336685 57.169277
v -11.447395 164.331055 99.274292
v -11.447410 183.996719 116.803970
v -11.447425 217.202377 124.935951
v -11.447470 279.866638 178.049713
v -11.447482 258.297577 229.655411
v -11.447489 270.733093 235.209610
v -11.447491 283.279053 227.439667
v -11.447496 299.200073 227.263626
v -11.447490 323.097778 188.649872
v -11.447473 315.567047 153.783264
v -11.447466 292.243958 158.639877
v -11.447421 228.390472 105.104240
v -11.447422 236.216873 98.686325
v -11.447412 236.854691 73.433273
v -11.447377 183.817780 35.412090
v -11.447370 182.641327 18.542288
v -11.447343 230.165436 -90.794716
v -11.447377 312.753357 -79.719391
v -11.447380 316.967163 -76.816666
v -11.447383 321.180969 -73.914070
v -11.447386 325.394745 -71.011467
v -11.447389 329.608521 -68.108864
v -11.447391 333.822327 -65.206261
v -11.447393 338.036133 -62.303661
v -11.447396 342.249939 -59.401058
v -11.447399 346.463715 -56.498470
v -11.447402 350.677490 -53.595852
v -11.447405 354.891296 -50.693249
v -11.447407 359.105103 -47.790646
v -11.447410 363.318878 -44.888058
v -11.447413 370.147339 -41.633373
v -11.447416 377.594666 -40.599575
v -11.447419 385.435059 -41.565777
v -11.447421 393.442566 -44.311108
v -11.447422 401.391357 -48.614727
v -11.447423 409.055511 -54.255825
v -11.447422 416.209167 -61.013546
v -11.447422 422.626404 -68.667046
v -11.447420 428.081390 -76.995491
v -11.447418 432.348206 -85.778038
v -11.447415 435.201019 -94.793877
v -11.447412 436.413879 -103.822121
v -11.447409 435.843018 -113.837730
v -11.447404 433.522339 -122.998314
v -11.447399 429.649658 -131.301300
v -11.447394 424.422791 -138.744095
v -11.447390 418.039734 -145.324173
v -11.447384 410.698242 -151.038971
v -11.447379 402.596375 -155.885971
v -11.447374 393.931885 -159.862579
v -11.447370 384.902771 -162.966339
v -11.447366 375.706848 -165.194611
v -11.447362 366.542023 -166.544876
v -11.447358 357.606201 -167.014587
v -11.447355 348.849091 -167.034515
v -11.447352 340.618622 -167.036865
v -11.447350 332.839569 -167.024200
v -11.447347 325.436707 -166.998978
v -11.447344 318.334778 -166.963745
v -11.447342 311.458557 -166.920990
v -11.447339 304.732849 -166.873199
v -11.447337 298.082306 -166.822906
v -11.447334 291.431824 -166.772644
v -11.447332 284.706085 -166.724869
v -11.447330 277.829865 -166.682098
v -11.447327 270.727966 -166.646881
v -11.447298 202.695068 -177.936493
v -35.447308 194.161697 -148.841400
v -35.447338 156.212357 -32.960415
v -35.447350 140.958191 1.025905
v -35.447365 148.744720 30.893076
v -35.447365 138.911926 41.134476
v -35.447372 143.336685 57.169270
v -35.447395 164.331055 99.274277
v -35.447411 183.996719 116.803955
v -35.447426 217.202377 124.935936
v -35.447472 279.866638 178.049713
v -35.447483 258.297577 229.655411
v -35.447487 270.733093 235.209610
v -35.447491 283.279053 227.439667
v -35.447495 299.200073 227.263626
v -35.447491 323.097778 188.649872
v -35.447472 315.567047 153.783264
v -35.447464 292.243958 158.639877
v -35.447422 228.390472 105.104225
v -35.447422 236.216873 98.686310
v -35.447411 236.854691 73.433258
v -35.447376 183.817780 35.412083
v -35.447369 182.641327 18.542276
v -35.447342 230.165436 -90.794731
v -35.447376 312.753357 -79.719406
v -35.447380 316.967163 -76.816681
v -35.447384 321.180969 -73.914085
v -35.447388 325.394745 -71.011482
v -35.447388 329.608521 -68.108879
v -35.447392 333.822327 -65.206276
v -35.447395 338.036133 -62.303669
v -35.447395 342.249939 -59.401066
v -35.447399 346.463715 -56.498478
v -35.447403 350.677490 -53.595860
v -35.447403 354.891296 -50.693256
v -35.447407 359.105103 -47.790653
v -35.447411 363.318878 -44.888065
v -35.447414 370.147339 -41.633381
v -35.447418 377.594666 -40.599583
v -35.447418 385.435059 -41.565784
v -35.447422 393.442566 -44.311115
v -35.447422 401.391357 -48.614735
v -35.447422 409.055511 -54.255833
v -35.447422 416.209167 -61.013554
v -35.447422 422.626404 -68.667061
v -35.447418 428.081390 -76.995506
v -35.447418 432.348206 -85.778053
v -35.447414 435.201019 -94.793892
v -35.447411 436.413879 -103.822136
v -35.447411 435.843018 -113.837746
v -35.447403 433.522339 -122.998329
v -35.447399 429.649658 -131.301300
v -35.447395 424.422791 -138.744095
v -35.447388 418.039734 -145.324173
v -35.447384 410.698242 -151.038971
v -35.447380 402.596375 -155.885971
v -35.447372 393.931885 -159.862579
v -35.447369 384.902771 -162.966339
v -35.447365 375.706848 -165.194611
v -35.447361 366.542023 -166.544876
v -35.447357 357.606201 -167.014587
v -35.447357 348.849091 -167.034515
v -35.447353 340.618622 -167.036865
v -35.447350 332.839569 -167.024200
v -35.447346 325.436707 -166.998978
v -35.447342 318.334778 -166.963745
v -35.447342 311.458557 -166.920990
v -35.447338 304.732849 -166.873199
v -35.447338 298.082306 -166.822906
v -35.447334 291.431824 -166.772644
v -35.447334 284.706085 -166.724869
v -35.447330 277.829865 -166.682098
v -35.447327 270.727966 -166.646881
v -35.447296 202.695068 -177.936493
v -35.447308 194.161697 -148.841400
v -11.447307 194.161697 -148.841400
v -35.447338 156.212357 -32.960415
v -11.447339 156.212357 -32.960407
v -35.447350 140.958191 1.025905
v -11.447348 140.958191 1.025914
v -35.447365 148.744720 30.893076
v -11.447363 148.744720 30.893087
v -35.447365 138.911926 41.134476
v -11.447363 138.911926 41.134483
v -35.447372 143.336685 57.169270
v -11.447371 143.336685 57.169277
v -35.447395 164.331055 99.274277
v -11.447395 164.331055 99.274292
v -35.447411 183.996719 116.803955
v -11.447410 183.996719 116.803970
v -35.447426 217.202377 124.935936
v -11.447425 217.202377 124.935951
v -35.447472 279.866638 178.049713
v -11.447470 279.866638 178.049713
v -35.447483 258.297577 229.655411
v -11.447482 258.297577 229.655411
v -35.447487 270.733093 235.209610
v -11.447489 270.733093 235.209610
v -35.447491 283.279053 227.439667
v -11.447491 283.279053 227.439667
v -35.447495 299.200073 227.263626
v -11.447496 299.200073 227.263626
v -35.447491 323.097778 188.649872
v -11.447490 323.097778 188.649872
v -35.447472 315.567047 153.783264
v -11.447473 315.567047 153.783264
v -35.447464 292.243958 158.639877
v -11.447466 292.243958 158.639877
v -35.447422 228.390472 105.104225
v -11.447421 228.390472 105.104240
v -35.447422 236.216873 98.686310
v -11.447422 236.216873 98.686325
v -35.447411 236.854691 73.433258
v -11.447412 236.854691 73.433273
v -35.447376 183.817780 35.412083
v -11.447377 183.817780 35.412090
v -35.447369 182.641327 18.542276
v -11.447370 182.641327 18.542288
v -35.447342 230.165436 -90.794731
v -11.447343 230.165436 -90.794716
v -35.447376 312.753357 -79.719406
v -11.447377 312.753357 -79.719391
v -35.447380 316.967163 -76.816681
v -11.447380 316.967163 -76.816666
v -35.447384 321.180969 -73.914085
v -11.447383 321.180969 -73.914070
v -35.447388 325.394745 -71.011482
v -11.447386 325.394745 -71.011467
v -35.447388 329.608521 -68.108879
v -11.447389 329.608521 -68.108864
v -35.447392 333.822327 -65.206276
v -11.447391 333.822327 -65.206261
v -35.447395 338.036133 -62.303669
v -11.447393 338.036133 -62.303661
v -35.447395 342.249939 -59.401066
v -11.447396 342.249939 -59.401058
v -35.447399 346.463715 -56.498478
v -11.447399 346.463715 -56.498470
v -35.447403 350.677490 -53.595860
v -11.447402 350.677490 -53.595852
v -35.447403 354.891296 -50.693256
v -11.447405 354.891296 -50.693249
v -35.447407 359.105103 -47.790653
v -11.447407 359.105103 -47.790646
v -35.447411 363.318878 -44.888065
v -11.447410 363.318878 -44.888058
v -35.447414 370.147339 -41.633381
v -11.447413 370.147339 -41.633373
v -35.447418 377.594666 -40.599583
v -11.447416 377.594666 -40.599575
v -35.447418 385.435059 -41.565784
v -11.447419 385.435059 -41.565777
v -35.447422 393.442566 -44.311115
v -11.447421 393.442566 -44.311108
v -35.447422 401.391357 -48.614735
v -11.447422 401.391357 -48.614727
v -35.447422 409.055511 -54.255833
v -11.447423 409.055511 -54.255825
v -35.447422 416.209167 -61.013554
v -11.447422 416.209167 -61.013546
v -35.447422 422.626404 -68.667061
v -11.447422 422.626404 -68.667046
v -35.447418 428.081390 -76.995506
v -11.447420 428.081390 -76.995491
v -35.447418 432.348206 -85.778053
v -11.447418 432.348206 -85.778038
v -35.447414 435.201019 -94.793892
v -11.447415 435.201019 -94.793877
v -35.447411 436.413879 -103.822136
v -11.447412 436.413879 -103.822121
v -35.447411 435.843018 -113.837746
v -11.447409 435.843018 -113.837730
v -35.447403 433.522339 -122.998329
v -11.447404 433.522339 -122.998314
v -35.447399 429.649658 -131.301300
v -11.447399 429.649658 -131.301300
v -35.447395 424.422791 -138.744095
v -11.447394 424.422791 -138.744095
v -35.447388 418.039734 -145.324173
v -11.447390 418.039734 -145.324173
v -35.447384 410.698242 -151.038971
v -11.447384 410.698242 -151.038971
v -35.447380 402.596375 -155.885971
v -11.447379 402.596375 -155.885971
v -35.447372 393.931885 -159.862579
v -11.447374 393.931885 -159.862579
v -35.447369 384.902771 -162.966339
v -11.447370 384.902771 -162.966339
v -35.447365 375.706848 -165.194611
v -11.447366 375.706848 -165.194611
v -35.447361 366.542023 -166.544876
v -11.447362 366.542023 -166.544876
v -35.447357 357.606201 -167.014587
v -11.447358 357.606201 -167.014587
v -35.447357 348.849091 -167.034515
v -11.447355 348.849091 -167.034515
v -35.447353 340.618622 -167.036865
v -11.447352 340.618622 -167.036865
v -35.447350 332.839569 -167.024200
v -11.447350 332.839569 -167.024200
v -35.447346 325.436707 -166.998978
v -11.447347 325.436707 -166.998978
v -35.447342 318.334778 -166.963745
v -11.447344 318.334778 -166.963745
v -35.447342 311.458557 -166.920990
v -11.447342 311.458557 -166.920990
v -35.447338 304.732849 -166.873199
v -11.447339 304.732849 -166.873199
v -35.447338 298.082306 -166.822906
v -11.447337 298.082306 -166.822906
v -35.447334 291.431824 -166.772644
v -11.447334 291.431824 -166.772644
v -35.447334 284.706085 -166.724869
v -11.447332 284.706085 -166.724869
v -35.447330 277.829865 -166.682098
v -11.447330 277.829865 -166.682098
v -35.447327 270.727966 -166.646881
v -11.447327 270.727966 -166.646881
v -35.447296 202.695068 -177.936493
v -11.447298 202.695068 -177.936493
vn 1.0000 0.0000 0.0000
vn -1.0000 -0.0000 -0.0000
vn 0.0000 -0.9550 -0.2964
vn 0.0000 -0.9326 -0.3609
vn 0.0000 -0.9965 -0.0833
vn 0.0000 -0.9677 -0.2522
vn 0.0000 -0.9694 -0.2453
vn 0.0000 -0.9338 0.3578
vn 0.0000 -0.7945 0.6073
vn 0.0000 -0.4654 0.8851
vn 0.0000 -0.4543 0.8908
vn 0.0000 -0.9723 0.2337
vn 0.0000 -0.9296 0.3685
vn 0.0000 0.0672 0.9977
vn 0.0000 0.2790 0.9603
vn 0.0000 0.4915 0.8708
vn 0.0000 0.9854 0.1699
vn 0.0000 0.5450 -0.8384
vn 0.0000 0.2437 -0.9698
vn 0.0000 1.0000 0.0054
vn 0.0000 0.8984 0.4391
vn 0.0000 0.8952 -0.4455
vn 0.0000 0.8731 -0.4875
vn 0.0000 0.9855 0.1693
vn 0.0000 0.4914 0.8709
vn 0.0000 -0.3600 0.9330
vn 0.0000 -0.5673 0.8235
vn 0.0000 -0.5672 0.8235
vn 0.0000 -0.5003 0.8658
vn 0.0000 -0.2872 0.9579
vn 0.0000 -0.0076 1.0000
vn 0.0000 0.2245 0.9745
vn 0.0000 0.4016 0.9158
vn 0.0000 0.5357 0.8444
vn 0.0000 0.6409 0.7676
vn 0.0000 0.7277 0.6859
vn 0.0000 0.8028 0.5962
vn 0.0000 0.8697 0.4935
vn 0.0000 0.9289 0.3703
vn 0.0000 0.9759 0.2182
vn 0.0000 0.9992 0.0383
vn 0.0000 0.9884 -0.1519
vn 0.0000 0.9420 -0.3356
vn 0.0000 0.8656 -0.5006
vn 0.0000 0.7704 -0.6375
vn 0.0000 0.6676 -0.7445
vn 0.0000 0.5649 -0.8252
vn 0.0000 0.4659 -0.8848
vn 0.0000 0.3715 -0.9284
vn 0.0000 0.2806 -0.9598
vn 0.0000 0.1908 -0.9816
vn 0.0000 0.0992 -0.9951
vn 0.0000 0.0274 -0.9996
vn 0.0000 0.0013 -1.0000
vn 0.0000 -0.0006 -1.0000
vn 0.0000 -0.0025 -1.0000
vn 0.0000 -0.0042 -1.0000
vn 0.0000 -0.0056 -1.0000
vn 0.0000 -0.0067 -1.0000
vn 0.0000 -0.0073 -1.0000
vn 0.0000 -0.0075 -1.0000
vn 0.0000 0.0797 -0.9968
vn 0.0000 -0.5316 -0.8469
g BezierCurve.002_Mesh.001_Material
usemtl Material
s off
f 72//1 1//1 73//1
f 72//1 2//1 1//1
f 71//1 2//1 72//1
f 71//1 3//1 2//1
f 70//1 3//1 71//1
f 69//1 3//1 70//1
f 68//1 3//1 69//1
f 68//1 23//1 3//1
f 23//1 4//1 3//1
f 67//1 23//1 68//1
f 67//1 24//1 23//1
f 22//1 4//1 23//1
f 66//1 24//1 67//1
f 65//1 24//1 66//1
f 64//1 24//1 65//1
f 63//1 24//1 64//1
f 4//1 6//1 5//1
f 22//1 6//1 4//1
f 62//1 24//1 63//1
f 61//1 24//1 62//1
f 22//1 7//1 6//1
f 60//1 24//1 61//1
f 21//1 7//1 22//1
f 59//1 24//1 60//1
f 20//1 7//1 21//1
f 58//1 24//1 59//1
f 57//1 24//1 58//1
f 56//1 24//1 57//1
f 56//1 25//1 24//1
f 56//1 26//1 25//1
f 55//1 26//1 56//1
f 20//1 8//1 7//1
f 55//1 27//1 26//1
f 55//1 28//1 27//1
f 54//1 28//1 55//1
f 54//1 29//1 28//1
f 53//1 29//1 54//1
f 53//1 30//1 29//1
f 53//1 31//1 30//1
f 52//1 31//1 53//1
f 52//1 32//1 31//1
f 20//1 9//1 8//1
f 52//1 33//1 32//1
f 51//1 33//1 52//1
f 51//1 34//1 33//1
f 19//1 18//1 20//1
f 18//1 9//1 20//1
f 51//1 35//1 34//1
f 50//1 35//1 51//1
f 50//1 36//1 35//1
f 49//1 36//1 50//1
f 49//1 37//1 36//1
f 17//1 9//1 18//1
f 17//1 10//1 9//1
f 49//1 38//1 37//1
f 48//1 38//1 49//1
f 48//1 39//1 38//1
f 47//1 39//1 48//1
f 47//1 40//1 39//1
f 46//1 40//1 47//1
f 46//1 41//1 40//1
f 45//1 41//1 46//1
f 45//1 42//1 41//1
f 44//1 42//1 45//1
f 44//1 43//1 42//1
f 16//1 10//1 17//1
f 16//1 11//1 10//1
f 15//1 11//1 16//1
f 15//1 12//1 11//1
f 15//1 13//1 12//1
f 15//1 14//1 13//1
f 74//2 145//2 146//2
f 75//2 145//2 74//2
f 75//2 144//2 145//2
f 76//2 144//2 75//2
f 76//2 143//2 144//2
f 76//2 142//2 143//2
f 76//2 141//2 142//2
f 96//2 141//2 76//2
f 77//2 96//2 76//2
f 96//2 140//2 141//2
f 97//2 140//2 96//2
f 77//2 95//2 96//2
f 97//2 139//2 140//2
f 97//2 138//2 139//2
f 97//2 137//2 138//2
f 97//2 136//2 137//2
f 79//2 77//2 78//2
f 79//2 95//2 77//2
f 97//2 135//2 136//2
f 97//2 134//2 135//2
f 80//2 95//2 79//2
f 97//2 133//2 134//2
f 80//2 94//2 95//2
f 97//2 132//2 133//2
f 80//2 93//2 94//2
f 97//2 131//2 132//2
f 97//2 130//2 131//2
f 97//2 129//2 130//2
f 98//2 129//2 97//2
f 99//2 129//2 98//2
f 99//2 128//2 129//2
f 81//2 93//2 80//2
f 100//2 128//2 99//2
f 101//2 128//2 100//2
f 101//2 127//2 128//2
f 102//2 127//2 101//2
f 102//2 126//2 127//2
f 103//2 126//2 102//2
f 104//2 126//2 103//2
f 104//2 125//2 126//2
f 105//2 125//2 104//2
f 82//2 93//2 81//2
f 106//2 125//2 105//2
f 106//2 124//2 125//2
f 107//2 124//2 106//2
f 91//2 92//2 93//2
f 82//2 91//2 93//2
f 108//2 124//2 107//2
f 108//2 123//2 124//2
f 109//2 123//2 108//2
f 109//2 122//2 123//2
f 110//2 122//2 109//2
f 82//2 90//2 91//2
f 83//2 90//2 82//2
f 111//2 122//2 110//2
f 111//2 121//2 122//2
f 112//2 121//2 111//2
f 112//2 120//2 121//2
f 113//2 120//2 112//2
f 113//2 119//2 120//2
f 114//2 119//2 113//2
f 114//2 118//2 119//2
f 115//2 118//2 114//2
f 115//2 117//2 118//2
f 116//2 117//2 115//2
f 83//2 89//2 90//2
f 84//2 89//2 83//2
f 84//2 88//2 89//2
f 85//2 88//2 84//2
f 86//2 88//2 85//2
f 87//2 88//2 86//2
s 1
f 148//3 150//4 149//4 147//3
f 150//4 152//5 151//5 149//4
f 152//5 154//6 153//6 151//5
f 154//6 156//7 155//7 153//6
f 156//7 158//8 157//8 155//7
f 158//8 160//9 159//9 157//8
f 160//9 162//10 161//10 159//9
f 162//10 164//11 163//11 161//10
f 164//11 166//12 165//12 163//11
f 166//12 168//13 167//13 165//12
f 168//13 170//14 169//14 167//13
f 170//14 172//15 171//15 169//14
f 172//15 174//16 173//16 171//15
f 174//16 176//17 175//17 173//16
f 176//17 178//18 177//18 175//17
f 178//18 180//19 179//19 177//18
f 180//19 182//20 181//20 179//19
f 182//20 184//21 183//21 181//20
f 184//21 186//22 185//22 183//21
f 186//22 188//23 187//23 185//22
f 188//23 190//24 189//24 187//23
f 190//24 192//25 191//25 189//24
f 192//25 194//26 193//26 191//25
f 194//26 196//27 195//27 193//26
f 196//27 198//28 197//28 195//27
f 198//28 200//28 199//28 197//28
f 200//28 202//28 201//28 199//28
f 202//28 204//28 203//28 201//28
f 204//28 206//28 205//28 203//28
f 206//28 208//28 207//28 205//28
f 208//28 210//28 209//28 207//28
f 210//28 212//28 211//28 209//28
f 212//28 214//28 213//28 211//28
f 214//28 216//28 215//28 213//28
f 216//28 218//29 217//29 215//28
f 218//29 220//30 219//30 217//29
f 220//30 222//31 221//31 219//30
f 222//31 224//32 223//32 221//31
f 224//32 226//33 225//33 223//32
f 226//33 228//34 227//34 225//33
f 228//34 230//35 229//35 227//34
f 230//35 232//36 231//36 229//35
f 232//36 234//37 233//37 231//36
f 234//37 236//38 235//38 233//37
f 236//38 238//39 237//39 235//38
f 238//39 240//40 239//40 237//39
f 240//40 242//41 241//41 239//40
f 242//41 244//42 243//42 241//41
f 244//42 246//43 245//43 243//42
f 246//43 248//44 247//44 245//43
f 248//44 250//45 249//45 247//44
f 250//45 252//46 251//46 249//45
f 252//46 254//47 253//47 251//46
f 254//47 256//48 255//48 253//47
f 256//48 258//49 257//49 255//48
f 258//49 260//50 259//50 257//49
f 260//50 262//51 261//51 259//50
f 262//51 264//52 263//52 261//51
f 264//52 266//53 265//53 263//52
f 266//53 268//54 267//54 265//53
f 268//54 270//55 269//55 267//54
f 270//55 272//56 271//56 269//55
f 272//56 274//57 273//57 271//56
f 274//57 276//58 275//58 273//57
f 276//58 278//59 277//59 275//58
f 278//59 280//60 279//60 277//59
f 280//60 282//61 281//61 279//60
f 282//61 284//60 283//60 281//61
f 284//60 286//59 285//59 283//60
f 286//59 288//58 287//58 285//59
f 288//58 290//62 289//62 287//58
f 290//62 292//63 291//63 289//62
f 292//63 148//3 147//3 291//63
